<svg width="158" height="32" viewBox="0 0 158 32" fill="none" xmlns="http://www.w3.org/2000/svg">
<g id="cap" clip-path="url(#clip0_8_26)">
<path id="ArthaLens" d="M36.456 24L42.6 6.96H46.92L53.064 24H49.272L48.024 20.376H41.472L40.224 24H36.456ZM42.504 17.376H47.016L44.76 10.8L42.504 17.376ZM54.6465 24V11.136H58.0545L58.1745 14.88L57.9105 14.808C58.1185 13.512 58.4865 12.576 59.0145 12C59.5425 11.424 60.2705 11.136 61.1985 11.136H62.3745V14.112H61.1985C60.5265 14.112 59.9745 14.2 59.5425 14.376C59.1105 14.552 58.7825 14.832 58.5585 15.216C58.3505 15.6 58.2465 16.12 58.2465 16.776V24H54.6465ZM69.3964 24C68.0684 24 67.0924 23.696 66.4684 23.088C65.8444 22.464 65.5324 21.48 65.5324 20.136V8.112H69.1324V19.704C69.1324 20.328 69.2604 20.752 69.5164 20.976C69.7884 21.2 70.1884 21.312 70.7164 21.312H72.5164V24H69.3964ZM63.4684 13.824V11.136H72.5164V13.824H63.4684ZM74.6387 24V6.96H78.2387V14.136H77.7587C77.8867 13.384 78.1347 12.768 78.5027 12.288C78.8867 11.808 79.3587 11.448 79.9187 11.208C80.4947 10.968 81.1187 10.848 81.7907 10.848C82.7507 10.848 83.5507 11.056 84.1907 11.472C84.8307 11.888 85.3107 12.464 85.6307 13.2C85.9667 13.936 86.1347 14.776 86.1347 15.72V24H82.5347V16.584C82.5347 15.624 82.3827 14.904 82.0787 14.424C81.7907 13.944 81.2947 13.704 80.5907 13.704C79.8547 13.704 79.2787 13.952 78.8627 14.448C78.4467 14.944 78.2387 15.688 78.2387 16.68V24H74.6387ZM92.8219 24.288C91.4939 24.288 90.4059 23.984 89.5579 23.376C88.7259 22.752 88.3099 21.888 88.3099 20.784C88.3099 19.648 88.6619 18.776 89.3659 18.168C90.0859 17.544 91.1419 17.088 92.5339 16.8L96.6859 15.984C96.6859 15.152 96.4939 14.528 96.1099 14.112C95.7419 13.68 95.2059 13.464 94.5019 13.464C93.8139 13.464 93.2779 13.624 92.8939 13.944C92.5099 14.248 92.2619 14.704 92.1499 15.312L88.5259 15.144C88.7659 13.736 89.3979 12.672 90.4219 11.952C91.4619 11.216 92.8219 10.848 94.5019 10.848C96.4219 10.848 97.8619 11.304 98.8219 12.216C99.7979 13.128 100.286 14.464 100.286 16.224V20.616C100.286 20.984 100.342 21.232 100.454 21.36C100.582 21.472 100.766 21.528 101.006 21.528H101.366V24C101.254 24.032 101.07 24.064 100.814 24.096C100.574 24.128 100.334 24.144 100.094 24.144C99.5819 24.144 99.1019 24.056 98.6539 23.88C98.2219 23.704 97.8699 23.408 97.5979 22.992C97.3259 22.56 97.1899 21.952 97.1899 21.168L97.5019 21.408C97.3419 21.984 97.0539 22.488 96.6379 22.92C96.2379 23.352 95.7099 23.688 95.0539 23.928C94.4139 24.168 93.6699 24.288 92.8219 24.288ZM93.6859 21.816C94.2779 21.816 94.7979 21.704 95.2459 21.48C95.6939 21.24 96.0459 20.896 96.3019 20.448C96.5579 20 96.6859 19.472 96.6859 18.864V18.24L93.7579 18.864C93.1819 18.976 92.7419 19.168 92.4379 19.44C92.1499 19.696 92.0059 20.032 92.0059 20.448C92.0059 20.88 92.1499 21.216 92.4379 21.456C92.7259 21.696 93.1419 21.816 93.6859 21.816ZM103.448 24V6.96H107.096V23.016L105.08 20.928H114.944V24H103.448ZM122.47 24.288C121.158 24.288 120.014 24.016 119.038 23.472C118.078 22.912 117.326 22.128 116.782 21.12C116.254 20.112 115.99 18.928 115.99 17.568C115.99 16.208 116.254 15.032 116.782 14.04C117.326 13.032 118.078 12.248 119.038 11.688C119.998 11.128 121.134 10.848 122.446 10.848C123.726 10.848 124.838 11.128 125.782 11.688C126.726 12.248 127.454 13.048 127.966 14.088C128.494 15.128 128.758 16.368 128.758 17.808V18.528H119.71C119.758 19.552 120.03 20.312 120.526 20.808C121.038 21.304 121.71 21.552 122.542 21.552C123.15 21.552 123.654 21.424 124.054 21.168C124.47 20.912 124.766 20.52 124.942 19.992L128.566 20.208C128.23 21.488 127.518 22.488 126.43 23.208C125.342 23.928 124.022 24.288 122.47 24.288ZM119.71 16.32H125.062C125.014 15.376 124.75 14.672 124.27 14.208C123.806 13.744 123.198 13.512 122.446 13.512C121.694 13.512 121.07 13.76 120.574 14.256C120.094 14.736 119.806 15.424 119.71 16.32ZM130.982 24V11.136H134.222L134.366 14.904L133.91 14.784C134.038 13.824 134.294 13.056 134.678 12.48C135.078 11.904 135.574 11.488 136.166 11.232C136.758 10.976 137.406 10.848 138.11 10.848C139.038 10.848 139.822 11.048 140.462 11.448C141.118 11.848 141.614 12.416 141.95 13.152C142.302 13.872 142.478 14.728 142.478 15.72V24H138.878V16.92C138.878 16.232 138.822 15.648 138.71 15.168C138.598 14.688 138.398 14.328 138.11 14.088C137.822 13.832 137.422 13.704 136.91 13.704C136.158 13.704 135.582 13.984 135.182 14.544C134.782 15.088 134.582 15.88 134.582 16.92V24H130.982ZM150.846 24.288C149.518 24.288 148.406 24.104 147.51 23.736C146.614 23.352 145.926 22.84 145.446 22.2C144.982 21.544 144.718 20.792 144.654 19.944L148.302 19.824C148.414 20.432 148.67 20.904 149.07 21.24C149.47 21.576 150.062 21.744 150.846 21.744C151.486 21.744 151.982 21.64 152.334 21.432C152.702 21.224 152.886 20.904 152.886 20.472C152.886 20.2 152.822 19.976 152.694 19.8C152.566 19.608 152.31 19.448 151.926 19.32C151.558 19.176 151.006 19.048 150.27 18.936C148.91 18.696 147.846 18.416 147.078 18.096C146.31 17.776 145.766 17.36 145.446 16.848C145.126 16.336 144.966 15.712 144.966 14.976C144.966 13.744 145.438 12.752 146.382 12C147.342 11.232 148.774 10.848 150.678 10.848C151.894 10.848 152.91 11.04 153.726 11.424C154.558 11.808 155.198 12.336 155.646 13.008C156.11 13.664 156.398 14.416 156.51 15.264L152.886 15.408C152.838 14.992 152.71 14.64 152.502 14.352C152.31 14.048 152.062 13.816 151.758 13.656C151.454 13.48 151.086 13.392 150.654 13.392C150.014 13.392 149.518 13.528 149.166 13.8C148.83 14.056 148.662 14.4 148.662 14.832C148.662 15.152 148.734 15.416 148.878 15.624C149.038 15.816 149.294 15.976 149.646 16.104C149.998 16.232 150.47 16.336 151.062 16.416C152.438 16.608 153.526 16.88 154.326 17.232C155.142 17.568 155.726 17.992 156.078 18.504C156.43 19.016 156.606 19.648 156.606 20.4C156.606 21.232 156.366 21.936 155.886 22.512C155.406 23.088 154.734 23.528 153.87 23.832C153.022 24.136 152.014 24.288 150.846 24.288Z" fill="#0F172A"/>
<g id="Brand">
<path id="Vector" d="M16 30C23.732 30 30 23.732 30 16C30 8.26801 23.732 2 16 2C8.26801 2 2 8.26801 2 16C2 23.732 8.26801 30 16 30Z" stroke="#F87171" stroke-width="2" stroke-linecap="round" stroke-linejoin="round"/>
<path id="Vector_2" d="M16 26C21.5228 26 26 21.5228 26 16C26 10.4772 21.5228 6 16 6C10.4772 6 6 10.4772 6 16C6 21.5228 10.4772 26 16 26Z" stroke="#F87171" stroke-width="2" stroke-linecap="round" stroke-linejoin="round"/>
<path id="Vector_3" d="M16 22C19.3137 22 22 19.3137 22 16C22 12.6863 19.3137 10 16 10C12.6863 10 10 12.6863 10 16C10 19.3137 12.6863 22 16 22Z" stroke="#F87171" stroke-width="2" stroke-linecap="round" stroke-linejoin="round"/>
<path id="Vector_4" d="M16 18C17.1046 18 18 17.1046 18 16C18 14.8954 17.1046 14 16 14C14.8954 14 14 14.8954 14 16C14 17.1046 14.8954 18 16 18Z" stroke="#F87171" stroke-width="2" stroke-linecap="round" stroke-linejoin="round"/>
</g>
</g>
<defs>
<clipPath id="clip0_8_26">
<rect width="158" height="32" fill="white"/>
</clipPath>
</defs>
</svg>
