<svg width="190" height="100" viewBox="0 0 190 100" fill="none" xmlns="http://www.w3.org/2000/svg">
<path d="M34.456 74L40.6 56.96H44.92L51.064 74H47.272L46.024 70.376H39.472L38.224 74H34.456ZM40.504 67.376H45.016L42.76 60.8L40.504 67.376ZM52.6465 74V61.136H56.0545L56.1745 64.88L55.9105 64.808C56.1185 63.512 56.4865 62.576 57.0145 62C57.5425 61.424 58.2705 61.136 59.1985 61.136H60.3745V64.112H59.1985C58.5265 64.112 57.9745 64.2 57.5425 64.376C57.1105 64.552 56.7825 64.832 56.5585 65.216C56.3505 65.6 56.2465 66.12 56.2465 66.776V74H52.6465ZM67.3964 74C66.0684 74 65.0924 73.696 64.4684 73.088C63.8444 72.464 63.5324 71.48 63.5324 70.136V58.112H67.1324V69.704C67.1324 70.328 67.2604 70.752 67.5164 70.976C67.7884 71.2 68.1884 71.312 68.7164 71.312H70.5164V74H67.3964ZM61.4684 63.824V61.136H70.5164V63.824H61.4684ZM72.6387 74V56.96H76.2387V64.136H75.7587C75.8867 63.384 76.1347 62.768 76.5027 62.288C76.8867 61.808 77.3587 61.448 77.9187 61.208C78.4947 60.968 79.1187 60.848 79.7907 60.848C80.7507 60.848 81.5507 61.056 82.1907 61.472C82.8307 61.888 83.3107 62.464 83.6307 63.2C83.9667 63.936 84.1347 64.776 84.1347 65.72V74H80.5347V66.584C80.5347 65.624 80.3827 64.904 80.0787 64.424C79.7907 63.944 79.2947 63.704 78.5907 63.704C77.8547 63.704 77.2787 63.952 76.8627 64.448C76.4467 64.944 76.2387 65.688 76.2387 66.68V74H72.6387ZM90.8219 74.288C89.4939 74.288 88.4059 73.984 87.5579 73.376C86.7259 72.752 86.3099 71.888 86.3099 70.784C86.3099 69.648 86.6619 68.776 87.3659 68.168C88.0859 67.544 89.1419 67.088 90.5339 66.8L94.6859 65.984C94.6859 65.152 94.4939 64.528 94.1099 64.112C93.7419 63.68 93.2059 63.464 92.5019 63.464C91.8139 63.464 91.2779 63.624 90.8939 63.944C90.5099 64.248 90.2619 64.704 90.1499 65.312L86.5259 65.144C86.7659 63.736 87.3979 62.672 88.4219 61.952C89.4619 61.216 90.8219 60.848 92.5019 60.848C94.4219 60.848 95.8619 61.304 96.8219 62.216C97.7979 63.128 98.2859 64.464 98.2859 66.224V70.616C98.2859 70.984 98.3419 71.232 98.4539 71.36C98.5819 71.472 98.7659 71.528 99.0059 71.528H99.3659V74C99.2539 74.032 99.0699 74.064 98.8139 74.096C98.5739 74.128 98.3339 74.144 98.0939 74.144C97.5819 74.144 97.1019 74.056 96.6539 73.88C96.2219 73.704 95.8699 73.408 95.5979 72.992C95.3259 72.56 95.1899 71.952 95.1899 71.168L95.5019 71.408C95.3419 71.984 95.0539 72.488 94.6379 72.92C94.2379 73.352 93.7099 73.688 93.0539 73.928C92.4139 74.168 91.6699 74.288 90.8219 74.288ZM91.6859 71.816C92.2779 71.816 92.7979 71.704 93.2459 71.48C93.6939 71.24 94.0459 70.896 94.3019 70.448C94.5579 70 94.6859 69.472 94.6859 68.864V68.24L91.7579 68.864C91.1819 68.976 90.7419 69.168 90.4379 69.44C90.1499 69.696 90.0059 70.032 90.0059 70.448C90.0059 70.88 90.1499 71.216 90.4379 71.456C90.7259 71.696 91.1419 71.816 91.6859 71.816ZM101.448 74V56.96H105.096V73.016L103.08 70.928H112.944V74H101.448ZM120.47 74.288C119.158 74.288 118.014 74.016 117.038 73.472C116.078 72.912 115.326 72.128 114.782 71.12C114.254 70.112 113.99 68.928 113.99 67.568C113.99 66.208 114.254 65.032 114.782 64.04C115.326 63.032 116.078 62.248 117.038 61.688C117.998 61.128 119.134 60.848 120.446 60.848C121.726 60.848 122.838 61.128 123.782 61.688C124.726 62.248 125.454 63.048 125.966 64.088C126.494 65.128 126.758 66.368 126.758 67.808V68.528H117.71C117.758 69.552 118.03 70.312 118.526 70.808C119.038 71.304 119.71 71.552 120.542 71.552C121.15 71.552 121.654 71.424 122.054 71.168C122.47 70.912 122.766 70.52 122.942 69.992L126.566 70.208C126.23 71.488 125.518 72.488 124.43 73.208C123.342 73.928 122.022 74.288 120.47 74.288ZM117.71 66.32H123.062C123.014 65.376 122.75 64.672 122.27 64.208C121.806 63.744 121.198 63.512 120.446 63.512C119.694 63.512 119.07 63.76 118.574 64.256C118.094 64.736 117.806 65.424 117.71 66.32ZM128.982 74V61.136H132.222L132.366 64.904L131.91 64.784C132.038 63.824 132.294 63.056 132.678 62.48C133.078 61.904 133.574 61.488 134.166 61.232C134.758 60.976 135.406 60.848 136.11 60.848C137.038 60.848 137.822 61.048 138.462 61.448C139.118 61.848 139.614 62.416 139.95 63.152C140.302 63.872 140.478 64.728 140.478 65.72V74H136.878V66.92C136.878 66.232 136.822 65.648 136.71 65.168C136.598 64.688 136.398 64.328 136.11 64.088C135.822 63.832 135.422 63.704 134.91 63.704C134.158 63.704 133.582 63.984 133.182 64.544C132.782 65.088 132.582 65.88 132.582 66.92V74H128.982ZM148.846 74.288C147.518 74.288 146.406 74.104 145.51 73.736C144.614 73.352 143.926 72.84 143.446 72.2C142.982 71.544 142.718 70.792 142.654 69.944L146.302 69.824C146.414 70.432 146.67 70.904 147.07 71.24C147.47 71.576 148.062 71.744 148.846 71.744C149.486 71.744 149.982 71.64 150.334 71.432C150.702 71.224 150.886 70.904 150.886 70.472C150.886 70.2 150.822 69.976 150.694 69.8C150.566 69.608 150.31 69.448 149.926 69.32C149.558 69.176 149.006 69.048 148.27 68.936C146.91 68.696 145.846 68.416 145.078 68.096C144.31 67.776 143.766 67.36 143.446 66.848C143.126 66.336 142.966 65.712 142.966 64.976C142.966 63.744 143.438 62.752 144.382 62C145.342 61.232 146.774 60.848 148.678 60.848C149.894 60.848 150.91 61.04 151.726 61.424C152.558 61.808 153.198 62.336 153.646 63.008C154.11 63.664 154.398 64.416 154.51 65.264L150.886 65.408C150.838 64.992 150.71 64.64 150.502 64.352C150.31 64.048 150.062 63.816 149.758 63.656C149.454 63.48 149.086 63.392 148.654 63.392C148.014 63.392 147.518 63.528 147.166 63.8C146.83 64.056 146.662 64.4 146.662 64.832C146.662 65.152 146.734 65.416 146.878 65.624C147.038 65.816 147.294 65.976 147.646 66.104C147.998 66.232 148.47 66.336 149.062 66.416C150.438 66.608 151.526 66.88 152.326 67.232C153.142 67.568 153.726 67.992 154.078 68.504C154.43 69.016 154.606 69.648 154.606 70.4C154.606 71.232 154.366 71.936 153.886 72.512C153.406 73.088 152.734 73.528 151.87 73.832C151.022 74.136 150.014 74.288 148.846 74.288Z" fill="#0F172A"/>
<path d="M95 48C102.732 48 109 41.732 109 34C109 26.268 102.732 20 95 20C87.268 20 81 26.268 81 34C81 41.732 87.268 48 95 48Z" stroke="#F87171" stroke-width="2" stroke-linecap="round" stroke-linejoin="round"/>
<path d="M95 44C100.523 44 105 39.5228 105 34C105 28.4772 100.523 24 95 24C89.4772 24 85 28.4772 85 34C85 39.5228 89.4772 44 95 44Z" stroke="#F87171" stroke-width="2" stroke-linecap="round" stroke-linejoin="round"/>
<path d="M95 40C98.3137 40 101 37.3137 101 34C101 30.6863 98.3137 28 95 28C91.6863 28 89 30.6863 89 34C89 37.3137 91.6863 40 95 40Z" stroke="#F87171" stroke-width="2" stroke-linecap="round" stroke-linejoin="round"/>
<path d="M95 36C96.1046 36 97 35.1046 97 34C97 32.8954 96.1046 32 95 32C93.8954 32 93 32.8954 93 34C93 35.1046 93.8954 36 95 36Z" stroke="#F87171" stroke-width="2" stroke-linecap="round" stroke-linejoin="round"/>
</svg>
